<?xml version="1.0" encoding="UTF-8"?>
<svg id="Layer_1" xmlns="http://www.w3.org/2000/svg" version="1.1" viewBox="0 0 1920 1080">
  <!-- Generator: Adobe Illustrator 30.0.0, SVG Export Plug-In . SVG Version: 2.1.1 Build 123)  -->
  <defs>
    <style>
      .st0 {
        fill: #0e3262;
      }

      .st1 {
        fill: #dfc47b;
      }
    </style>
  </defs>
  <g>
    <g>
      <g>
        <path class="st1" d="M985.55,421.65c.42.21.9.27,1.36.16,2.24-.51,7.7-2.41,9.1-2.97,4.29-1.72,10.06-5.18,13.29-8.36,15.99-15.7,6.31-39.65-16.42-42.27-8.01-.92-22.28,2.45-19.89,12.44,1.33,5.55,9.41,6.41,14.32,5.61,4.01-.65,7.78-4.68,12.29-.77,4.7,4.07.93,11.52-2.8,15.15-8.03,7.81-18.7,10.24-29.1,13.16l17.86,7.84Z"/>
        <polygon class="st1" points="953.56 409.71 962.6 412.48 968.5 296.99 949.86 296.99 953.56 409.71"/>
        <path class="st1" d="M932.15,387.05c8.62.02,16.57-7.27,9.41-14.64-11.01-11.34-36.87-.25-40.52,14.57-9.2,37.39,57.6,36.81,78.03,53.62,8.26,6.8,7.2,14.75-.95,21.02-4.43,3.41-8.51,4.21-12.1,7.11,2.16,1.46,8.13,4.25,11.01,4.62,3.97.52,11.67-3.38,14.76-5.82,11.84-9.35,12.82-25.3,2.51-36.11-14.13-14.81-39.2-17.21-58.11-22.8-8.61-2.55-27.78-10.84-19.55-22.18,4.29-5.91,10.18.6,15.51.61Z"/>
        <path class="st1" d="M963.46,436.23l-9.24-3.03.58,31.62c.1.35,6.27,2.11,7.18,2.15,1.3.06.8,0,.94-.88l.54-29.85Z"/>
        <path class="st1" d="M947.1,552.27c-2.87,5.04-2.2,12.29,2.75,15.95.89-6.06-2.72-8.6,3.71-18.07-2.91-2.99-4.9-.62-6.46,2.12Z"/>
        <path class="st1" d="M968.58,512.77c-9.05-5.52-30.18-6.99-27.15-20.98,1.04-4.81,5.16-6.55,8.41-9.74-2.91-2.01-7.25-2.55-10.72-1.93-5.98,1.06-10.35,9.07-10.39,14.37-.12,16.49,21.25,18.85,32.32,24.87,11,5.98,11.26,15.48,1.86,23.11,3.45,4.98,6.87,3.06,10.58-.57,9.79-9.57,6.14-22.38-4.92-29.12Z"/>
        <path class="st1" d="M972.35,491.42c1.57,3.24,1.94,5.81.59,8.61-.57,1.19-1.41,2.23-2.39,3.12l-5.78,5.26c5.99,2.74,6.04,4.89,12.63,1.68,10.03-4.89,13.3-16.51,7.27-25.67-8.56-13.01-25.19-14.47-38.52-20.14-13.64-5.8-21.81-15.46-7.06-26.23,2.76-2.02,7.34-3.37,9.23-4.83.51-.39,1.35-1.22.92-1.78-.28-.37-8.06-2.54-9.19-2.8-18.41-4.21-30.27,17.42-21.38,32.22,11,18.3,47.11,16.98,53.68,30.57Z"/>
        <path class="st1" d="M957.31,552.23c-1.9,1.27-2.18,2.29-2.45,3.88-.77,4.45-.48,16.34.42,22.14.09.58.18,1.19.27,1.79.28,1.84.97,3.6,2.03,5.13h0c.42.61,1.37.5,1.63-.19,2.76-7.24,3.1-16,2.48-23.59-.26-3.2-1.01-7.5-4.37-9.15Z"/>
        <path class="st1" d="M959.99,543.46c-4-2.4-7.72-2.82-10.65-7.03-4.48-6.44-.93-12.43,3.61-17.67-7.36-6.11-14.95,4.63-14.95,11.25,0,16.21,23.7,16.25,27.83,28.59,1.04,3.12.77,6.43,1.42,9.6,9.45-10.23,2.83-18.7-7.28-24.76Z"/>
        <path class="st1" d="M960.74,540.97l1.43-18.83-6.41-3.06c-2.54.14-1.02,17.82.31,19.69.86,1.21,2.98,1.72,4.67,2.21Z"/>
        <path class="st1" d="M954.91,503.89c.36,1.01,4.55,2.74,7.38,2.74v-20.43c0-.52-5.98-3.41-6.43-2.62-1.66,2.97-1.05,7.16-1.01,9.11.08,3.73-.19,7.47.05,11.2Z"/>
        <path class="st1" d="M882.33,318.8c1.67-1.15,12.4-10.21,13.47-9.37-16.26,19.04-42.12,35-68.98,31.98,16.58,17.75,41.22,7.2,58.24-4.02,8.75-5.77,16.27-12.87,24.1-19.66-5.93,9.33-14.68,17.54-23.98,23.92-9.09,6.24-20.87,11.66-32.26,11.61,11.45,10.52,24.26,6.82,36.68.3,11.37-5.97,21.38-14.94,30.75-23.39-6.86,10.54-17.26,20.85-28.71,27.11-1.71.93-8.5,3.4-8.89,3.68-.52.37.32,1.02.8,1.32,15.84,9.86,39.12-12.02,47.98-23.23.92.45-.13,1.43-.44,1.95-3.45,5.82-10.86,14.67-16.34,18.77-1.33.99-3.09,2.05-4.03,2.36,10.24,6.47,20.05-3.09,26.41-10.06l-2.8,9.47c.55.48,7.41-.98,8.41-1.75,5.98-4.63,2.4-26.03,3.4-33.19-6.4.68-13.35-4.34-14.24-10.41-1.19-8.09,4.19-14.73-1.65-22.71-16.43-22.45-45.87,8.34-60.47,17.51-18.6,11.68-39.8,18.9-62.22,13.25,3.88,7.18,12.06,11.73,20.26,12.96,18.96,2.86,39.63-8.18,54.52-18.4Z"/>
        <path class="st1" d="M972.24,326.6c.6,5.07-1.86,32.01,2.94,33.75,1.88.68,3.82,1.19,8.24,1.18-.72-1.44-1.72-3.4-2.11-4.62-.46-1.44-1.42-3.76-.69-5.44,5.22,7.35,15.91,17.25,25.16,9.77-2.45-1.72-4.67-3.23-6.81-5.35-4.6-4.56-9.67-11.34-12.76-16.85,10.58,10.33,23.2,26.8,40.33,24.8,2.96-.35,5.93-1.54,7.83-3.79-12.82-4.54-23.45-13.39-32.29-23.11-2.35-2.59-4.79-5.57-6.55-8.56,9.72,8.88,18.66,17.82,30.58,24.15,9.01,4.79,18.58,8.8,28.94,5.32.89-.3,7.02-3.14,7.38-3.31s5.32-2.14.17-1.39c-.39.06-.8.08-1.2.05-11.32-.72-23.29-7.27-32.21-13.68-8.5-6.11-16.86-13.88-22.48-22.39,20.34,17.43,54.56,48.99,81.72,25.15-8.56.36-16.79-.59-25.02-3.39-15.82-5.38-32.06-17.93-42.71-30.06.37-.32,3.64,1.71,4.29,2.12,6.12,3.88,11.87,9,18.13,12.92,20.45,12.83,49.84,24.89,66.42.05-21.07,4.68-41.41-.83-59.22-11.65-15.59-9.47-45.28-41.45-62.57-19.13-6.3,8.13-.77,14.76-1.85,23.11-.75,5.78-7.56,10.84-13.68,10.35Z"/>
        <circle class="st1" cx="959.18" cy="266.74" r="18.71"/>
      </g>
      <g>
        <path class="st1" d="M926.7,547.56c-61.15-14.43-106.79-69.46-106.79-134.95,0-8.06.7-15.96,2.03-23.65h-6.69c-1.26,7.75-1.91,15.65-1.91,23.65,0,38.79,15.11,75.26,42.54,102.69,19.76,19.76,44.21,33.12,70.83,39.05v-6.79Z"/>
        <path class="st1" d="M1101.86,388.96h-6.69c1.33,7.69,2.03,15.59,2.03,23.65,0,65.49-45.64,120.52-106.79,134.95v6.79c26.63-5.93,51.08-19.29,70.83-39.05,27.43-27.43,42.54-63.9,42.54-102.69,0-8-.65-15.91-1.91-23.65Z"/>
      </g>
    </g>
    <g>
      <path class="st1" d="M958.55,625.3c-58.92,0-114.31-22.94-155.97-64.6-41.66-41.66-64.6-97.05-64.6-155.97s22.94-114.31,64.6-155.97c41.66-41.66,97.05-64.6,155.97-64.6s114.31,22.94,155.97,64.6c41.66,41.66,64.6,97.05,64.6,155.97s-22.94,114.31-64.6,155.97c-41.66,41.66-97.05,64.6-155.97,64.6ZM958.55,193.54c-116.45,0-211.18,94.74-211.18,211.18s94.74,211.18,211.18,211.18,211.18-94.74,211.18-211.18-94.74-211.18-211.18-211.18Z"/>
      <path class="st1" d="M958.55,656.93c-34.04,0-67.07-6.67-98.17-19.82-30.03-12.7-57-30.89-80.16-54.05-23.16-23.16-41.34-50.13-54.05-80.16-13.15-31.1-19.82-64.13-19.82-98.17s6.67-67.07,19.82-98.17c12.7-30.03,30.89-57,54.05-80.16,23.16-23.16,50.13-41.34,80.16-54.05,31.1-13.15,64.13-19.82,98.17-19.82s67.07,6.67,98.17,19.82c30.03,12.7,57,30.89,80.16,54.05,23.16,23.16,41.34,50.13,54.05,80.16,13.15,31.1,19.82,64.13,19.82,98.17s-6.67,67.07-19.82,98.17c-12.7,30.03-30.89,57-54.05,80.16-23.16,23.16-50.13,41.34-80.16,54.05-31.1,13.15-64.13,19.82-98.17,19.82ZM958.55,164.6c-132.41,0-240.13,107.72-240.13,240.13s107.72,240.13,240.13,240.13,240.13-107.72,240.13-240.13-107.72-240.13-240.13-240.13Z"/>
    </g>
  </g>
  <g>
    <path class="st0" d="M357.63,707.78c-20.85,0-31.27,14.89-31.27,39.87s8.6,42.03,31.6,41.53c4.63,0,8.93-.5,12.08-1.49,2.98-.99,3.48-2.32,3.48-5.46v-13.24l16.88,1.16v28.62c-9.1,4.8-22.17,6.78-32.76,6.78-33.59,0-51.95-18.86-51.95-56.59,0-43.18,26.47-57.58,51.95-57.58,9.76,0,21.18,2.15,31.11,6.78v28.13l-16.88,1.16v-12.91c0-3.14-.5-4.47-3.47-5.46-3.14-.99-7.45-1.32-10.75-1.32Z"/>
    <path class="st0" d="M403.95,803.41v-13.4l5.46-.5c2.81-.33,4.8-1.32,4.8-4.63v-76.94l-9.43-.5v-14.06h39.87v13.4l-5.46.5c-2.81.33-4.8,1.32-4.8,5.29v73.79h27.47c3.48,0,3.81-2.15,3.81-5.3v-11.58l16.88,1.16v32.76h-78.59Z"/>
    <path class="st0" d="M503.06,707.95l-9.43-.5v-14.06h40.04v13.4l-5.46.5c-2.81.33-4.8,1.32-4.8,5.29v76.28l9.43.5v14.06h-40.04v-13.4l5.46-.5c3.14-.33,4.8-1.32,4.8-5.46v-76.11ZM524.9,653.35l6.62,5.46c5.29,4.47,3.14,9.6-2.81,12.91l-25.65,14.4-4.96-6.78,26.8-25.98Z"/>
    <path class="st0" d="M543.59,790.01l5.96-.5c2.81-.17,4.3-1.32,4.3-4.63v-76.94l-9.43-.5v-14.06h29.78l46.82,75.95h.33v-61.39l-10.92-.5v-14.06h40.37v13.4l-5.96.5c-2.48.16-3.97,1.65-3.97,5.13v91h-19.36l-47.82-77.1h-.33v62.54l10.75.5v14.06h-40.54v-13.4Z"/>
    <path class="st0" d="M670.5,707.95l-9.43-.5v-14.06h40.04v13.4l-5.46.5c-2.81.33-4.8,1.32-4.8,5.29v76.28l9.43.5v14.06h-40.04v-13.4l5.46-.5c3.14-.33,4.8-1.32,4.8-5.46v-76.11Z"/>
    <path class="st0" d="M764.31,707.78c-20.85,0-31.27,14.89-31.27,39.87s8.6,42.03,31.6,41.53c4.63,0,8.93-.5,12.08-1.49,2.98-.99,3.48-2.32,3.48-5.46v-13.24l16.88,1.16v28.62c-9.1,4.8-22.17,6.78-32.76,6.78-33.59,0-51.95-18.86-51.95-56.59,0-43.18,26.47-57.58,51.95-57.58,9.76,0,21.18,2.15,31.11,6.78v28.13l-16.88,1.16v-12.91c0-3.14-.5-4.47-3.47-5.46-3.14-.99-7.45-1.32-10.75-1.32Z"/>
    <path class="st0" d="M843.23,707.78l-10.42-.99v-13.4h37.89l33.75,95.47h.17l9.43.5v14.06h-42.69v-13.4l6.29-.5c3.47-.33,5.13-1.32,3.97-4.96l-3.47-10.26h-38.72l-4.96,14.56,9.93.5v14.06h-38.22v-13.4l5.46-.5c2.81-.33,3.81-1.49,4.96-4.63l26.64-77.1ZM843.4,759.07h30.77l-14.89-47.16h-.5l-15.39,47.16Z"/>
    <path class="st0" d="M1030.52,755.43h-46.82v33.42l9.6.5v14.06h-40.04v-13.4l5.46-.5c2.81-.33,4.8-1.32,4.8-4.63v-76.94l-9.43-.5v-14.06h40.04v13.4l-5.46.5c-3.14.33-4.96,1.32-4.96,5.46v25.65h46.82v-30.44l-9.43-.5v-14.06h40.04v13.4l-5.46.5c-2.81.33-4.8,1.32-4.8,5.29v76.28l9.43.5v14.06h-40.04v-13.4l5.46-.5c3.14-.33,4.8-1.32,4.8-5.46v-28.62Z"/>
    <path class="st0" d="M1081.32,707.95l-9.43-.5v-14.06h40.04v13.4l-5.46.5c-2.81.33-4.8,1.32-4.8,5.29v76.28l9.43.5v14.06h-40.04v-13.4l5.46-.5c3.14-.33,4.8-1.32,4.8-5.46v-76.11Z"/>
    <path class="st0" d="M1176.29,772.64c0-10.42-9.43-13.4-21.01-16.55-16.38-4.47-31.6-11.09-31.6-32.26s15.55-32.43,38.39-32.43c10.92,0,21.18,2.15,31.11,6.78v24.82l-16.88,1.16v-9.6c0-3.14-.5-4.47-3.48-5.46-3.14-.99-7.45-1.32-10.75-1.32-9.76,0-17.37,3.97-17.37,14.23s9.6,13.07,22.01,16.88c15.06,4.8,30.94,11.58,30.94,32.93s-17.21,33.75-40.04,33.75c-13.24,0-23.5-2.15-33.42-6.78v-26.14l16.88-1.16v10.09c0,3.14.5,4.47,3.48,5.46,3.14.99,7.45,1.49,11.91,1.49,10.92,0,19.86-3.48,19.86-15.88Z"/>
    <path class="st0" d="M1208.22,790.01l5.46-.5c2.81-.33,4.8-1.32,4.8-4.63v-76.94l-9.43-.5v-14.06h47.32c24.32,0,39.21,11.58,39.21,33.75,0,25.15-17.87,37.72-42.85,37.72h-14.06v23.99l15.88.5v14.06h-46.33v-13.4ZM1250.58,748.81c14.39,0,24.16-4.96,24.16-19.69,0-17.04-9.76-19.69-25.98-19.69h-10.09v39.38h11.91Z"/>
    <path class="st0" d="M1325.2,707.78l-10.42-.99v-13.4h37.89l33.75,95.47h.17l9.43.5v14.06h-42.69v-13.4l6.29-.5c3.47-.33,5.13-1.32,3.97-4.96l-3.47-10.26h-38.72l-4.96,14.56,9.93.5v14.06h-38.22v-13.4l5.46-.5c2.81-.33,3.8-1.49,4.96-4.63l26.64-77.1ZM1325.36,759.07h30.77l-14.89-47.16h-.5l-15.39,47.16Z"/>
    <path class="st0" d="M1402.13,790.01l5.96-.5c2.81-.17,4.3-1.32,4.3-4.63v-76.94l-9.43-.5v-14.06h29.78l46.82,75.95h.33v-61.39l-10.92-.5v-14.06h40.37v13.4l-5.96.5c-2.48.16-3.97,1.65-3.97,5.13v91h-19.36l-47.82-77.1h-.33v62.54l10.76.5v14.06h-40.54v-13.4Z"/>
    <path class="st0" d="M1546.41,707.78l-10.42-.99v-13.4h37.89l33.75,95.47h.17l9.43.5v14.06h-42.69v-13.4l6.29-.5c3.47-.33,5.13-1.32,3.97-4.96l-3.47-10.26h-38.72l-4.96,14.56,9.93.5v14.06h-38.22v-13.4l5.46-.5c2.81-.33,3.8-1.49,4.96-4.63l26.64-77.1ZM1546.57,759.07h30.77l-14.89-47.16h-.5l-15.39,47.16Z"/>
  </g>
  <g>
    <path class="st0" d="M626.96,925.12c-4.47,0-7.18.12-11.65.47v-.94c2.24-1.41,3.41-2.47,4.71-4.71,1.88-3.18,1.88-8.24,1.88-9.41l.24-30.48h-60.72l1.06,30.71c.12,3.77,1.53,8.59,2.12,9.53,1.77,2.59,2.24,2.94,4.12,4.35l.12.94c-5.41-.35-8.71-.47-14.24-.47-4.12,0-6.59.12-10.71.47v-.94c2-1.41,3.18-2.59,4.35-4.71,1.06-1.88,2-8,2-9.18v-63.9c0-2.24-.35-4.47-1.88-6.83-.94-1.41-2.35-3.06-2.94-3.41v-1.06s6.24.59,10,.59,9.77-.59,9.77-.59v1.06c-.59.35-2.12,2.12-2.94,3.77-1.06,2.24-1.06,4.83-1.06,6.36l.24,30.01h60.72l.47-30.01c0-1.41-.24-4-1.29-6.36-.59-1.41-1.18-2.24-2.47-3.77v-1.06s5.88.59,9.53.59c3.41,0,8.94-.59,8.94-.59v1.06c-.35.47-1.18.59-2.59,3.77-.94,2.35-1.18,5.41-1.18,6.36l-.12,64.02c0,3.77,1.88,8.59,2.47,9.53,1.65,1.88,2.59,3.06,4.71,4.35v.94c-5.18-.35-8.36-.47-13.65-.47Z"/>
    <path class="st0" d="M786.07,925.12c-4.94,0-8,.12-12.83.47v-.94c2.47-1.06,4-2.71,4.71-5.3.82-3.06-.94-6.71-1.65-7.65l-14.59-31.89h-35.66l-12.94,28.24c-1.88,4-2.59,7.88-.24,11.53,1.53,2.71,3.3,4.36,6.36,5.06v.94c-4.71-.35-7.65-.47-12.59-.47s-8,0-12.94.47v-.94c2.35-1.77,3.77-3.06,5.77-5.18,4-4,8-11.53,8.36-12.12l40.01-78.61,41.54,80.96c1.65,3.53,3.06,5.53,5.65,8.59,2.35,2.82,4.24,4.12,7.41,6.36v.94c-6.35-.47-10-.47-16.36-.47ZM743.59,843.69l-16,33.07h32.72l-16.71-33.07Z"/>
    <path class="st0" d="M923.77,841.8c-2.59,2.82-6.82,9.53-7.88,11.77l-37.19,73.2h-1.53l-7.3-16-34.36-64.02c-.94-1.88-2.82-4.12-5.06-6.36-1.53-1.65-4.12-3.53-4.82-3.77v-1.06c5.88.35,9.41.35,15.3.35,4-.12,6.36-.12,10.24-.35v1.06c-.59.24-2.82,2-3.53,3.77-.94,2.24-.47,4.94.24,6.36l35.3,63.31,28.01-56.49c2.12-4.12,2.59-9.41,1.65-11.77-1.18-2.71-2-3.77-5.65-5.18v-1.06s6.47.35,10.59.35c4.47,0,11.53-.35,11.53-.35v1.06c-.59.35-3.65,2.94-5.53,5.18Z"/>
    <path class="st0" d="M1044.99,925.12c-4.94,0-8,.12-12.83.47v-.94c2.47-1.06,4-2.71,4.71-5.3.82-3.06-.94-6.71-1.65-7.65l-14.59-31.89h-35.66l-12.94,28.24c-1.88,4-2.59,7.88-.24,11.53,1.53,2.71,3.3,4.36,6.35,5.06v.94c-4.71-.35-7.65-.47-12.59-.47s-8,0-12.94.47v-.94c2.35-1.77,3.77-3.06,5.77-5.18,4-4,8-11.53,8.36-12.12l40.01-78.61,41.54,80.96c1.65,3.53,3.06,5.53,5.65,8.59,2.35,2.82,4.24,4.12,7.41,6.36v.94c-6.36-.47-10-.47-16.36-.47ZM1002.51,843.69l-16,33.07h32.71l-16.71-33.07Z"/>
    <path class="st0" d="M1207.16,840.86c-.82.94-3.76,4.94-3.76,14.83v71.78h-1.77c-9.18-10.47-14.24-16.83-23.65-27.07-19.77-21.42-50.96-56.37-50.96-55.31l1.06,60.37c.12,6.82,2.59,13.89,3.29,14.83,1.88,2.35,3.77,3.29,6.59,4.35l.12.94c-4.12-.35-6.71-.47-10.83-.47-4.94,0-7.88.12-12.71.47v-.94c2.47-1.18,3.88-2.35,5.77-4.35,2.47-2.94,3.65-12.36,3.65-14.95l-.12-57.66c0-2.94-2.47-6.24-3.41-7.3-1.41-1.41-3.29-3.41-3.88-3.77v-1.06c4,.47,6.47.47,10.59.47,3.18,0,5.18-.12,8.36-.47,2.12,2.82,3.53,4.59,5.77,7.41,2.94,3.77,58.37,63.43,58.37,62.02l-.35-49.19c0-2.59-1.88-11.65-4.35-14.59-1.65-2-3.06-3.41-5.41-4.59v-1.06c4.59.47,7.41.59,12.12.59,3.88,0,6.36-.12,10.36-.59v1.06c-2,1.18-2.71,1.41-4.83,4.24Z"/>
    <path class="st0" d="M1357.1,925.12c-4.94,0-8,.12-12.83.47v-.94c2.47-1.06,4-2.71,4.71-5.3.82-3.06-.94-6.71-1.65-7.65l-14.59-31.89h-35.66l-12.94,28.24c-1.88,4-2.59,7.88-.24,11.53,1.53,2.71,3.3,4.36,6.35,5.06v.94c-4.71-.35-7.65-.47-12.59-.47s-8,0-12.94.47v-.94c2.35-1.77,3.77-3.06,5.77-5.18,4-4,8-11.53,8.36-12.12l40.01-78.61,41.54,80.96c1.65,3.53,3.06,5.53,5.65,8.59,2.35,2.82,4.24,4.12,7.41,6.36v.94c-6.36-.47-10-.47-16.36-.47ZM1314.61,843.69l-16,33.07h32.71l-16.71-33.07Z"/>
  </g>
  <rect class="st1" x="302.78" y="883.64" width="187.01" height="9.46"/>
  <rect class="st1" x="1426.41" y="883.64" width="187.01" height="9.46"/>
</svg>